HIERARCHY
ROOT Hips
{
	OFFSET 0.000000 100.481300 0.000000
	CHANNELS 6 Xposition Yposition Zposition Xrotation Yrotation Zrotation
	JOINT Spine
	{
		OFFSET -0.279200 12.230698 -2.892100
		CHANNELS 3 Xrotation Yrotation Zrotation
		JOINT Spine1
		{
			OFFSET -0.325700 14.269203 -3.374200
			CHANNELS 3 Xrotation Yrotation Zrotation
			JOINT Spine2
			{
				OFFSET -0.372300 16.307602 -0.352600
				CHANNELS 3 Xrotation Yrotation Zrotation
				JOINT Neck
				{
					OFFSET -0.418800 17.814194 8.416900
					CHANNELS 3 Xrotation Yrotation Zrotation
					JOINT Head
					{
						OFFSET 0.000000 7.031097 3.806800
						CHANNELS 3 Xrotation Yrotation Zrotation
						JOINT HeadTop_End
						{
							OFFSET 0.000000 24.646606 12.978600
							CHANNELS 3 Xrotation Yrotation Zrotation
							End Site
							{
								OFFSET 0.000000 27.854965 0.000000
							}
						}
					}
				}
				JOINT LeftShoulder
				{
					OFFSET 16.952999 14.495407 -7.737500
					CHANNELS 3 Xrotation Yrotation Zrotation
					JOINT LeftArm
					{
						OFFSET 9.308998 -2.777710 0.208600
						CHANNELS 3 Xrotation Yrotation Zrotation
						JOINT LeftForeArm
						{
							OFFSET 29.972298 0.000000 0.000000
							CHANNELS 3 Xrotation Yrotation Zrotation
							JOINT LeftHand
							{
								OFFSET 26.026505 0.000000 0.000000
								CHANNELS 3 Xrotation Yrotation Zrotation
								JOINT LeftHandThumb1
								{
									OFFSET 12.240501 -7.147949 9.207150
									CHANNELS 3 Xrotation Yrotation Zrotation
									JOINT LeftHandThumb2
									{
										OFFSET 4.138618 -2.389435 2.389433
										CHANNELS 3 Xrotation Yrotation Zrotation
										JOINT LeftHandThumb3
										{
											OFFSET 2.726913 -1.574387 1.574386
											CHANNELS 3 Xrotation Yrotation Zrotation
											JOINT LeftHandThumb4
											{
												OFFSET 3.941010 -2.275345 2.275342
												CHANNELS 3 Xrotation Yrotation Zrotation
												End Site
												{
													OFFSET -0.005798 5.087799 0.009903
												}
											}
										}
									}
								}
								JOINT LeftHandIndex1
								{
									OFFSET 24.424698 -1.985611 5.953459
									CHANNELS 3 Xrotation Yrotation Zrotation
									JOINT LeftHandIndex2
									{
										OFFSET 6.426697 0.000000 0.000000
										CHANNELS 3 Xrotation Yrotation Zrotation
										JOINT LeftHandIndex3
										{
											OFFSET 5.337898 0.000000 0.000000
											CHANNELS 3 Xrotation Yrotation Zrotation
											JOINT LeftHandIndex4
											{
												OFFSET 4.409401 0.000000 0.000000
												CHANNELS 3 Xrotation Yrotation Zrotation
												End Site
												{
													OFFSET 0.000000 4.409363 0.014373
												}
											}
										}
									}
								}
								JOINT LeftHandMiddle1
								{
									OFFSET 23.810104 0.000000 0.000000
									CHANNELS 3 Xrotation Yrotation Zrotation
									JOINT LeftHandMiddle2
									{
										OFFSET 7.176498 0.000000 0.000000
										CHANNELS 3 Xrotation Yrotation Zrotation
										JOINT LeftHandMiddle3
										{
											OFFSET 6.774902 0.000000 0.000000
											CHANNELS 3 Xrotation Yrotation Zrotation
											JOINT LeftHandMiddle4
											{
												OFFSET 5.403328 0.000000 0.000000
												CHANNELS 3 Xrotation Yrotation Zrotation
												End Site
												{
													OFFSET -0.027702 5.403244 0.017414
												}
											}
										}
									}
								}
								JOINT LeftHandRing1
								{
									OFFSET 22.908401 -0.839279 -6.020567
									CHANNELS 3 Xrotation Yrotation Zrotation
									JOINT LeftHandRing2
									{
										OFFSET 6.337502 0.000000 0.000000
										CHANNELS 3 Xrotation Yrotation Zrotation
										JOINT LeftHandRing3
										{
											OFFSET 5.779297 0.000000 0.000000
											CHANNELS 3 Xrotation Yrotation Zrotation
											JOINT LeftHandRing4
											{
												OFFSET 4.965698 0.000000 0.000000
												CHANNELS 3 Xrotation Yrotation Zrotation
												End Site
												{
													OFFSET 0.000000 4.965668 0.016186
												}
											}
										}
									}
								}
								JOINT LeftHandPinky1
								{
									OFFSET 20.037003 -1.530319 -10.950146
									CHANNELS 3 Xrotation Yrotation Zrotation
									JOINT LeftHandPinky2
									{
										OFFSET 5.254700 0.000000 0.000000
										CHANNELS 3 Xrotation Yrotation Zrotation
										JOINT LeftHandPinky3
										{
											OFFSET 4.810204 0.000000 0.000000
											CHANNELS 3 Xrotation Yrotation Zrotation
											JOINT LeftHandPinky4
											{
												OFFSET 3.647202 0.000000 0.000000
												CHANNELS 3 Xrotation Yrotation Zrotation
												End Site
												{
													OFFSET 0.000000 3.647186 0.011889
												}
											}
										}
									}
								}
							}
						}
					}
				}
				JOINT RightShoulder
				{
					OFFSET -15.141001 14.495407 -7.737500
					CHANNELS 3 Xrotation Yrotation Zrotation
					JOINT RightArm
					{
						OFFSET -9.308998 -2.777710 0.208500
						CHANNELS 3 Xrotation Yrotation Zrotation
						JOINT RightForeArm
						{
							OFFSET -29.972300 0.000000 0.000000
							CHANNELS 3 Xrotation Yrotation Zrotation
							JOINT RightHand
							{
								OFFSET -26.026505 0.000000 0.000000
								CHANNELS 3 Xrotation Yrotation Zrotation
								JOINT RightHandThumb1
								{
									OFFSET -12.240601 -7.148026 9.207092
									CHANNELS 3 Xrotation Yrotation Zrotation
									JOINT RightHandThumb2
									{
										OFFSET -4.138618 -2.389435 2.389433
										CHANNELS 3 Xrotation Yrotation Zrotation
										JOINT RightHandThumb3
										{
											OFFSET -2.726974 -1.574417 1.574421
											CHANNELS 3 Xrotation Yrotation Zrotation
											JOINT RightHandThumb4
											{
												OFFSET -3.941010 -2.275345 2.275343
												CHANNELS 3 Xrotation Yrotation Zrotation
												End Site
												{
													OFFSET 0.005814 5.087799 0.009927
												}
											}
										}
									}
								}
								JOINT RightHandIndex1
								{
									OFFSET -24.424698 -1.985657 5.953444
									CHANNELS 3 Xrotation Yrotation Zrotation
									JOINT RightHandIndex2
									{
										OFFSET -6.426697 0.000000 0.000000
										CHANNELS 3 Xrotation Yrotation Zrotation
										JOINT RightHandIndex3
										{
											OFFSET -5.337898 0.000000 0.000000
											CHANNELS 3 Xrotation Yrotation Zrotation
											JOINT RightHandIndex4
											{
												OFFSET -4.409401 0.000000 0.000000
												CHANNELS 3 Xrotation Yrotation Zrotation
												End Site
												{
													OFFSET 0.000000 4.409363 0.014408
												}
											}
										}
									}
								}
								JOINT RightHandMiddle1
								{
									OFFSET -23.810097 0.000000 0.000000
									CHANNELS 3 Xrotation Yrotation Zrotation
									JOINT RightHandMiddle2
									{
										OFFSET -7.176498 0.000000 0.000000
										CHANNELS 3 Xrotation Yrotation Zrotation
										JOINT RightHandMiddle3
										{
											OFFSET -6.774902 0.000000 0.000000
											CHANNELS 3 Xrotation Yrotation Zrotation
											JOINT RightHandMiddle4
											{
												OFFSET -5.403328 0.000000 0.000000
												CHANNELS 3 Xrotation Yrotation Zrotation
												End Site
												{
													OFFSET 0.027702 5.403244 0.017457
												}
											}
										}
									}
								}
								JOINT RightHandRing1
								{
									OFFSET -22.908302 -0.839325 -6.020576
									CHANNELS 3 Xrotation Yrotation Zrotation
									JOINT RightHandRing2
									{
										OFFSET -6.337502 0.000000 0.000000
										CHANNELS 3 Xrotation Yrotation Zrotation
										JOINT RightHandRing3
										{
											OFFSET -5.779297 0.000000 0.000000
											CHANNELS 3 Xrotation Yrotation Zrotation
											JOINT RightHandRing4
											{
												OFFSET -4.965698 0.000000 0.000000
												CHANNELS 3 Xrotation Yrotation Zrotation
												End Site
												{
													OFFSET 0.000000 4.965668 0.016226
												}
											}
										}
									}
								}
								JOINT RightHandPinky1
								{
									OFFSET -20.037003 -1.530334 -10.950259
									CHANNELS 3 Xrotation Yrotation Zrotation
									JOINT RightHandPinky2
									{
										OFFSET -5.254700 0.000000 0.000000
										CHANNELS 3 Xrotation Yrotation Zrotation
										JOINT RightHandPinky3
										{
											OFFSET -4.810204 0.000000 0.000000
											CHANNELS 3 Xrotation Yrotation Zrotation
											JOINT RightHandPinky4
											{
												OFFSET -3.647202 0.000000 0.000000
												CHANNELS 3 Xrotation Yrotation Zrotation
												End Site
												{
													OFFSET 0.000000 3.647186 0.011917
												}
											}
										}
									}
								}
							}
						}
					}
				}
			}
		}
	}
	JOINT LeftUpLeg
	{
		OFFSET 15.427100 -6.655098 0.678600
		CHANNELS 3 Xrotation Yrotation Zrotation
		JOINT LeftLeg
		{
			OFFSET 4.081073 -39.591068 13.024000
			CHANNELS 3 Xrotation Yrotation Zrotation
			JOINT LeftFoot
			{
				OFFSET -4.081074 -37.707932 -15.979700
				CHANNELS 3 Xrotation Yrotation Zrotation
				JOINT LeftToeBase
				{
					OFFSET 5.346399 -15.068900 20.645000
					CHANNELS 3 Xrotation Yrotation Zrotation
					JOINT LeftToe_End
					{
						OFFSET 2.754700 0.931300 11.300900
						CHANNELS 3 Xrotation Yrotation Zrotation
						End Site
						{
							OFFSET 0.000000 11.669021 0.000000
						}
					}
				}
			}
		}
	}
	JOINT RightUpLeg
	{
		OFFSET -15.569500 -6.655098 0.678600
		CHANNELS 3 Xrotation Yrotation Zrotation
		JOINT RightLeg
		{
			OFFSET -4.081825 -39.591045 13.023800
			CHANNELS 3 Xrotation Yrotation Zrotation
			JOINT RightFoot
			{
				OFFSET 4.081824 -37.707954 -15.979600
				CHANNELS 3 Xrotation Yrotation Zrotation
				JOINT RightToeBase
				{
					OFFSET -5.346400 -15.068900 20.645000
					CHANNELS 3 Xrotation Yrotation Zrotation
					JOINT RightToe_End
					{
						OFFSET -2.754700 0.931300 11.300900
						CHANNELS 3 Xrotation Yrotation Zrotation
						End Site
						{
							OFFSET 0.000000 11.669021 0.000000
						}
					}
				}
			}
		}
	}
}
MOTION
Frames: 6
Frame Time: 0.033333
-0.397837 82.275253 0.003012 11.167440 -17.729390 1.887281 6.918368 -1.505148 -0.002028 12.782767 -3.414794 -0.714343 12.781665 -3.406608 -0.742958 -8.186464 3.077508 -1.359794 -30.955223 13.963446 0.410085 -0.000000 0.000001 -0.000000 0.706904 0.565180 0.607151 -14.819209 -29.246750 -49.750743 -0.000038 -76.844560 -0.000035 10.194138 -6.412095 25.636167 -1.690348 -11.317553 3.902125 6.218216 39.013081 2.713569 1.068931 21.860401 4.337103 0.000000 -0.000001 -0.000001 0.420771 -2.374385 20.095760 1.360368 4.113836 -36.582999 0.689523 3.008162 -25.814125 0.000001 0.000002 -0.000001 0.421427 -2.376195 20.111764 1.361525 4.115380 -36.599043 0.689507 3.008156 -25.814135 -0.000000 0.000001 -0.000002 0.177507 -1.556476 13.012208 1.360360 4.113858 -36.582971 0.689518 3.008163 -25.814128 -0.000001 -0.000003 0.000001 -0.538643 2.992215 8.966338 1.375387 0.048507 -36.996427 0.689505 3.008164 -25.814136 -0.000000 0.000002 0.000000 2.147990 5.953005 10.155608 -17.336644 22.845682 70.298527 0.001530 92.766755 -0.001522 46.200113 -0.896069 -3.624963 -1.996282 10.956659 -4.318698 6.729192 -33.289399 -1.664913 0.533968 -22.872963 -4.302593 0.000001 0.000001 -0.000001 0.732936 3.112223 -26.497536 1.760333 -4.628407 41.629057 0.944405 -3.503843 30.160838 0.000002 -0.000001 0.000000 0.732937 3.112223 -26.497536 1.760338 -4.628407 41.629057 0.944392 -3.503842 30.160852 0.000001 0.000000 -0.000001 0.301233 2.028228 -16.893616 1.760340 -4.628427 41.629047 0.944402 -3.503831 30.160842 0.000001 0.000001 -0.000000 0.111867 1.244731 -10.270423 1.760332 -4.628415 41.629043 0.944404 -3.503818 30.160865 -0.000003 -0.000000 0.000000 -44.227456 5.608071 22.402798 43.217875 3.721437 -0.578499 -7.161452 2.841859 -14.042210 -0.225300 -0.000005 0.000001 -0.000000 0.000000 0.000000 -35.938389 -9.909266 -24.723540 36.278314 1.256644 -3.980739 -8.209151 -4.480927 23.359129 0.000002 0.000024 0.000002 -0.000000 0.000002 0.000000 
-0.449141 82.382256 -0.044462 11.309150 -17.557375 1.912832 6.897423 -1.327953 -0.089619 12.741092 -3.078201 -0.902588 12.740839 -3.069127 -0.928239 -8.285529 2.945706 -1.388218 -31.179523 13.295948 0.369192 0.000000 -0.000000 -0.000001 0.691751 0.765703 0.318933 -14.688018 -31.180893 -48.942861 -0.000056 -75.327158 -0.000060 6.497788 -8.923569 24.181375 -1.690364 -11.317545 3.902117 6.218199 39.013084 2.713566 1.068927 21.860401 4.337103 -0.000002 0.000001 -0.000001 0.420761 -2.374399 20.095745 1.360355 4.113846 -36.582961 0.689509 3.008156 -25.814138 0.000000 -0.000001 0.000001 0.421432 -2.376204 20.111764 1.361505 4.115394 -36.599032 0.689499 3.008153 -25.814140 -0.000000 -0.000000 0.000001 0.177518 -1.556481 13.012205 1.360377 4.113855 -36.582971 0.689504 3.008151 -25.814125 -0.000000 0.000001 0.000001 -0.538664 2.992235 8.966332 1.375395 0.048507 -36.996447 0.689511 3.008152 -25.814138 0.000000 0.000002 -0.000000 2.127073 5.888408 10.058345 -18.165843 22.681906 70.395481 -0.000438 92.263445 0.000478 46.063076 -1.065467 -3.606166 -1.996290 10.956695 -4.318685 6.729202 -33.289410 -1.664909 0.533970 -22.872949 -4.302581 -0.000001 0.000002 0.000002 0.732927 3.112228 -26.497487 1.760330 -4.628406 41.629047 0.944399 -3.503835 30.160859 -0.000002 0.000001 0.000002 0.732927 3.112228 -26.497487 1.760332 -4.628408 41.629050 0.944388 -3.503838 30.160865 -0.000000 0.000001 -0.000001 0.301225 2.028229 -16.893621 1.760330 -4.628412 41.629037 0.944410 -3.503826 30.160855 -0.000000 0.000001 0.000001 0.111858 1.244744 -10.270419 1.760338 -4.628431 41.629060 0.944407 -3.503825 30.160865 0.000001 -0.000002 -0.000001 -44.392948 5.743186 22.421440 42.910052 3.497355 -0.678971 -6.937062 2.776884 -13.843955 -0.457728 0.000003 -0.000003 0.000000 -0.000000 -0.000000 -35.851479 -9.825464 -24.544678 36.106268 1.084043 -4.138169 -8.201575 -4.548707 23.484239 -0.062441 -0.000027 0.000005 -0.000000 0.000003 0.000000 
-0.592796 82.492188 -0.264553 11.939570 -17.425411 2.293424 6.746235 -1.149697 -0.256432 12.428534 -2.730534 -1.208627 12.429803 -2.719666 -1.231740 -8.432832 2.846797 -1.422343 -31.516436 12.827837 0.263668 0.000001 0.000001 0.000000 0.728276 0.555321 0.842971 -14.137371 -33.696728 -48.741258 0.000031 -73.507978 0.000031 -0.353334 -12.530098 22.153840 -1.690352 -11.317548 3.902128 6.218195 39.013095 2.713578 1.068940 21.860391 4.337100 -0.000001 0.000000 -0.000003 0.420778 -2.374380 20.095748 1.360371 4.113835 -36.582975 0.689479 3.008161 -25.814131 0.000000 0.000001 0.000001 0.421432 -2.376202 20.111755 1.361524 4.115386 -36.599022 0.689478 3.008172 -25.814143 -0.000000 -0.000000 0.000001 0.177512 -1.556489 13.012199 1.360389 4.113856 -36.582954 0.689490 3.008155 -25.814140 0.000000 0.000001 -0.000000 -0.538645 2.992219 8.966337 1.375398 0.048507 -36.996440 0.689506 3.008160 -25.814133 0.000000 0.000000 0.000000 2.110509 5.843717 9.811449 -19.041720 22.547817 70.644093 0.005758 91.158594 -0.005767 44.805771 -1.358553 -3.445623 -1.996289 10.956686 -4.318680 6.729202 -33.289379 -1.664901 0.533963 -22.872958 -4.302599 0.000000 0.000000 0.000002 0.732919 3.112222 -26.497454 1.760324 -4.628391 41.629047 0.944407 -3.503840 30.160838 0.000003 -0.000001 0.000001 0.732919 3.112222 -26.497451 1.760323 -4.628392 41.629047 0.944406 -3.503833 30.160835 0.000000 0.000000 -0.000001 0.301227 2.028243 -16.893600 1.760332 -4.628416 41.629043 0.944396 -3.503848 30.160855 -0.000000 -0.000000 -0.000001 0.111871 1.244742 -10.270409 1.760314 -4.628415 41.629057 0.944420 -3.503824 30.160848 0.000002 -0.000001 0.000000 -44.943779 5.836710 22.451626 42.347227 3.327037 -1.019711 -6.431920 2.696761 -13.640841 -0.671442 0.000001 0.000003 0.000000 0.000000 -0.000000 -36.533008 -9.574818 -24.582920 36.135068 0.861522 -4.052223 -8.110192 -4.562978 23.353872 -0.136273 0.000002 -0.000008 -0.000000 -0.000000 -0.000000 
-0.839404 82.471756 -0.728226 13.367841 -17.247408 3.021899 6.455472 -0.992717 -0.499100 11.804786 -2.407211 -1.605905 11.812511 -2.392939 -1.627180 -8.694321 2.772753 -1.441622 -31.925018 12.483764 0.138894 0.000000 0.000000 0.000000 0.825115 -0.021652 2.048088 -12.949246 -36.413313 -48.968792 -0.000019 -71.668027 -0.000020 -9.943216 -16.597863 19.386828 -1.690328 -11.317555 3.902135 6.218193 39.013074 2.713571 1.068923 21.860413 4.337106 0.000001 -0.000001 0.000001 0.420782 -2.374374 20.095760 1.360365 4.113839 -36.582975 0.689507 3.008159 -25.814130 0.000000 0.000001 -0.000000 0.421442 -2.376200 20.111755 1.361511 4.115410 -36.599019 0.689515 3.008164 -25.814135 0.000000 0.000001 0.000001 0.177519 -1.556476 13.012206 1.360350 4.113872 -36.582954 0.689519 3.008157 -25.814130 0.000000 0.000001 -0.000000 -0.538655 2.992221 8.966339 1.375394 0.048498 -36.996430 0.689511 3.008160 -25.814131 -0.000000 0.000000 0.000000 2.100909 5.788973 9.401696 -19.940517 22.355211 71.023886 0.011789 89.248962 -0.011862 42.086727 -1.758766 -3.188577 -1.996300 10.956685 -4.318692 6.729201 -33.289396 -1.664916 0.533964 -22.872951 -4.302591 0.000000 -0.000002 0.000002 0.732938 3.112241 -26.497560 1.760334 -4.628435 41.629040 0.944410 -3.503830 30.160862 -0.000001 -0.000001 0.000001 0.732938 3.112240 -26.497557 1.760335 -4.628436 41.629047 0.944422 -3.503828 30.160859 0.000001 -0.000001 0.000002 0.301220 2.028210 -16.893605 1.760320 -4.628397 41.629047 0.944412 -3.503838 30.160855 0.000001 -0.000001 -0.000000 0.111866 1.244726 -10.270438 1.760325 -4.628403 41.629057 0.944386 -3.503823 30.160865 -0.000002 -0.000001 -0.000000 -46.422142 5.739300 22.677838 41.737889 3.125099 -1.752197 -5.611856 2.593222 -13.347396 -0.823531 -0.000003 0.000001 0.000000 -0.000000 -0.000000 -38.397899 -9.108044 -24.842559 36.576090 0.643794 -3.584781 -8.009285 -4.534079 22.887283 -0.217322 0.000038 0.000005 -0.000000 -0.000000 -0.000000 
-1.174731 82.239449 -1.407566 15.585686 -16.898079 3.922591 6.033702 -0.886519 -0.749994 10.870776 -2.153758 -1.969177 10.883889 -2.134517 -1.989845 -9.234575 2.711912 -1.388370 -32.436264 12.232791 0.033768 0.000000 0.000000 0.000000 0.978939 -0.849100 3.588359 -11.738011 -39.278307 -50.080433 -0.000086 -69.994959 -0.000082 -21.210685 -19.718177 16.436630 -1.690349 -11.317561 3.902111 6.218185 39.013081 2.713580 1.068922 21.860430 4.337131 -0.000002 -0.000002 0.000002 0.420787 -2.374383 20.095795 1.360358 4.113857 -36.582985 0.689513 3.008160 -25.814131 0.000002 0.000000 -0.000000 0.421439 -2.376198 20.111782 1.361521 4.115395 -36.599036 0.689499 3.008163 -25.814128 -0.000001 0.000001 0.000001 0.177521 -1.556481 13.012220 1.360362 4.113855 -36.582982 0.689499 3.008158 -25.814133 -0.000000 -0.000000 -0.000000 -0.538651 2.992221 8.966342 1.375384 0.048508 -36.996444 0.689490 3.008163 -25.814131 0.000001 -0.000001 0.000000 2.086081 5.890159 8.664669 -20.920994 22.186603 71.309511 0.001186 85.986583 -0.001211 37.677840 -2.115884 -2.977836 -1.996312 10.956712 -4.318664 6.729213 -33.289406 -1.664907 0.533964 -22.872927 -4.302579 0.000002 -0.000000 0.000004 0.732924 3.112255 -26.497362 1.760320 -4.628427 41.629040 0.944399 -3.503830 30.160852 0.000001 0.000000 -0.000000 0.732925 3.112255 -26.497362 1.760326 -4.628429 41.629040 0.944391 -3.503831 30.160855 0.000002 -0.000002 -0.000000 0.301222 2.028238 -16.893646 1.760323 -4.628408 41.629047 0.944407 -3.503822 30.160862 0.000001 -0.000000 -0.000001 0.111855 1.244745 -10.270406 1.760333 -4.628427 41.629047 0.944412 -3.503826 30.160828 -0.000000 -0.000003 -0.000001 -49.019533 5.391152 23.201611 41.272125 2.799852 -2.850664 -4.536265 2.467220 -12.911144 -0.902155 -0.000000 -0.000002 0.000000 -0.000000 0.000000 -41.315422 -8.414837 -25.227821 37.456761 0.372219 -2.716129 -7.980566 -4.498441 22.171346 -0.299493 -0.000000 -0.000002 0.000000 -0.000002 -0.000000 
-1.595164 81.673210 -2.267511 18.490659 -16.151345 4.715183 5.645809 -0.849780 -0.938773 9.958208 -2.002765 -2.155007 9.947775 -1.978718 -2.176563 -10.154017 2.631340 -1.151328 -33.283741 12.087451 -0.080676 0.000000 -0.000000 0.000001 1.156199 -1.743607 5.113046 -11.454510 -41.684446 -52.340149 -0.000004 -68.767048 -0.000015 -31.879409 -19.587546 14.027667 -1.690360 -11.317511 3.902127 6.218165 39.013030 2.713559 1.068933 21.860449 4.337127 -0.000001 -0.000000 0.000000 0.420773 -2.374380 20.095873 1.360367 4.113835 -36.582975 0.689506 3.008146 -25.814145 -0.000002 -0.000000 0.000000 0.421426 -2.376182 20.111893 1.361519 4.115381 -36.599043 0.689522 3.008151 -25.814138 -0.000001 0.000001 0.000001 0.177513 -1.556465 13.012216 1.360367 4.113848 -36.582978 0.689511 3.008146 -25.814135 -0.000001 0.000000 0.000000 -0.538661 2.992238 8.966334 1.375392 0.048507 -36.996450 0.689516 3.008148 -25.814131 0.000002 0.000003 -0.000001 2.008710 6.878515 7.132482 -22.393359 22.893293 70.490489 -0.000070 80.865198 0.000076 32.607651 -1.920130 -3.112670 -1.996354 10.956791 -4.318688 6.729247 -33.289475 -1.664906 0.533930 -22.872874 -4.302576 0.000001 -0.000001 -0.000004 0.733259 3.112918 -26.503514 1.760328 -4.628412 41.629054 0.944401 -3.503851 30.160838 0.000002 -0.000001 -0.000000 0.733260 3.112920 -26.503516 1.760336 -4.628414 41.629054 0.944399 -3.503847 30.160842 0.000001 -0.000002 0.000001 0.301248 2.028287 -16.893856 1.760336 -4.628432 41.629047 0.944380 -3.503829 30.160869 0.000001 -0.000001 -0.000002 0.111872 1.244728 -10.270275 1.760336 -4.628419 41.629040 0.944408 -3.503824 30.160855 -0.000001 0.000001 -0.000000 -52.955044 4.657731 24.006102 41.198888 2.201742 -4.138904 -3.253728 2.316626 -12.330005 -0.916956 0.000003 -0.000004 0.000000 -0.000001 -0.000000 -45.053506 -7.559700 -25.685666 38.900595 -0.116832 -1.448397 -8.173911 -4.515508 21.367620 -0.379161 -0.000020 0.000004 -0.000000 0.000002 0.000000 
